<svg width="569" height="565" viewBox="0 0 569 565" fill="none" xmlns="http://www.w3.org/2000/svg">
<circle cx="284" cy="302" r="71" fill="white" stroke="white" stroke-width="8"/>
<path d="M291.84 358.469L257.581 290.388L283.58 290.388L277.111 245L311.37 313.082L285.37 313.082L291.84 358.469Z" fill="url(#paint0_linear)" stroke="url(#paint1_linear)" stroke-width="8" stroke-linecap="round" stroke-linejoin="round"/>
<path d="M38.988 489.968C38.988 493.688 37.848 496.688 35.568 498.968C33.312 501.224 30.528 502.784 27.216 503.648L41.652 525.5H33.192L20.124 504.584H13.968V525.5H6.804V475.892H20.016C26.232 475.892 30.948 477.08 34.164 479.456C37.38 481.808 38.988 485.312 38.988 489.968ZM31.392 489.968C31.392 486.92 30.504 484.724 28.728 483.38C26.976 482.036 24.276 481.364 20.628 481.364H13.968V499.148H20.7C24.108 499.148 26.736 498.452 28.584 497.06C30.456 495.644 31.392 493.28 31.392 489.968ZM82.3399 487.556L69.0919 525.716C68.1799 528.404 67.0039 530.828 65.5639 532.988C64.1239 535.172 62.2639 536.948 59.9839 538.316C57.7279 539.684 54.8839 540.536 51.4519 540.872L50.4799 535.508C53.0719 535.1 55.1239 534.476 56.6359 533.636C58.1719 532.796 59.3719 531.704 60.2359 530.36C61.1239 529.016 61.9159 527.396 62.6119 525.5H60.2719L47.2039 487.556H54.5839L64.9159 520.46L75.2119 487.556H82.3399ZM121.192 516.788C121.192 518.3 121.432 519.404 121.912 520.1C122.392 520.772 123.148 521.276 124.18 521.612L122.56 526.364C120.832 526.148 119.32 525.632 118.024 524.816C116.752 524 115.816 522.752 115.216 521.072C113.848 522.848 112.12 524.18 110.032 525.068C107.944 525.956 105.676 526.4 103.228 526.4C99.4118 526.4 96.3998 525.32 94.1918 523.16C91.9838 521 90.8798 518.156 90.8798 514.628C90.8798 510.692 92.4158 507.668 95.4878 505.556C98.5838 503.42 103.024 502.352 108.808 502.352H114.316V499.472C114.316 496.856 113.536 494.996 111.976 493.892C110.44 492.788 108.292 492.236 105.532 492.236C104.26 492.236 102.76 492.392 101.032 492.704C99.3278 493.016 97.5038 493.508 95.5598 494.18L93.7958 489.14C96.1238 488.252 98.3678 487.616 100.528 487.232C102.688 486.848 104.704 486.656 106.576 486.656C111.448 486.656 115.096 487.772 117.52 490.004C119.968 492.236 121.192 495.272 121.192 499.112V516.788ZM105.172 521.216C106.924 521.216 108.616 520.76 110.248 519.848C111.904 518.936 113.26 517.664 114.316 516.032V506.852H109.276C105.268 506.852 102.424 507.536 100.744 508.904C99.0638 510.248 98.2238 512.096 98.2238 514.448C98.2238 518.96 100.54 521.216 105.172 521.216ZM140.892 525.5H133.116L146.976 505.484L134.772 487.556H142.836L151.188 501.344L159.612 487.556H167.352L155.256 505.196L169.116 525.5H160.8L150.9 509.552L140.892 525.5ZM246.675 513.152H227.883L224.139 525.5H216.975L232.959 475.892H241.959L257.979 525.5H250.419L246.675 513.152ZM229.539 507.428H245.019L237.315 481.652L229.539 507.428ZM266.267 525.5V520.388H272.027V492.668H266.267V487.556H277.319L278.579 496.448C280.019 493.304 281.783 490.892 283.871 489.212C285.983 487.508 288.719 486.656 292.079 486.656C293.183 486.656 294.155 486.74 294.995 486.908C295.859 487.076 296.735 487.292 297.623 487.556L296.543 500.876H291.215V492.956H291.179C285.491 492.956 281.411 497.024 278.939 505.16V520.388H286.643V525.5H266.267ZM326.719 520.568C328.567 520.568 330.283 520.268 331.867 519.668C333.475 519.044 334.975 518.24 336.367 517.256L339.679 521.756C337.999 523.148 335.983 524.276 333.631 525.14C331.303 525.98 328.963 526.4 326.611 526.4C322.795 526.4 319.531 525.584 316.819 523.952C314.131 522.32 312.079 520.028 310.663 517.076C309.247 514.124 308.539 510.668 308.539 506.708C308.539 502.868 309.247 499.448 310.663 496.448C312.103 493.424 314.179 491.036 316.891 489.284C319.603 487.532 322.879 486.656 326.719 486.656C331.663 486.656 335.959 488.144 339.607 491.12L336.331 495.62C333.139 493.412 329.947 492.308 326.755 492.308C323.587 492.308 320.995 493.484 318.979 495.836C316.963 498.188 315.955 501.812 315.955 506.708C315.955 511.628 316.963 515.168 318.979 517.328C321.019 519.488 323.599 520.568 326.719 520.568ZM359.163 471.608V492.488C360.675 490.568 362.487 489.116 364.599 488.132C366.735 487.148 368.907 486.656 371.115 486.656C374.763 486.656 377.451 487.652 379.179 489.644C380.907 491.612 381.771 494.36 381.771 497.888V525.5H374.859V498.5C374.859 496.22 374.367 494.576 373.383 493.568C372.423 492.536 370.887 492.02 368.775 492.02C366.759 492.02 364.899 492.656 363.195 493.928C361.515 495.2 360.171 496.58 359.163 498.068V525.5H352.251V472.364L359.163 471.608ZM410.147 469.412C411.587 469.412 412.739 469.856 413.603 470.744C414.491 471.632 414.935 472.712 414.935 473.984C414.935 475.304 414.491 476.42 413.603 477.332C412.739 478.22 411.587 478.664 410.147 478.664C408.731 478.664 407.579 478.22 406.691 477.332C405.827 476.42 405.395 475.304 405.395 473.984C405.395 472.712 405.827 471.632 406.691 470.744C407.579 469.856 408.731 469.412 410.147 469.412ZM415.295 487.556V520.244H425.843V525.5H396.827V520.244H408.383V492.812H397.187V487.556H415.295ZM470.923 487.556L457.315 525.5H449.251L435.715 487.556H443.059L453.463 519.488L463.831 487.556H470.923ZM487.347 508.868C487.539 513.044 488.667 516.08 490.731 517.976C492.819 519.872 495.291 520.82 498.147 520.82C500.043 520.82 501.783 520.532 503.367 519.956C504.951 519.38 506.559 518.54 508.191 517.436L511.323 521.792C509.547 523.208 507.495 524.336 505.167 525.176C502.839 525.992 500.427 526.4 497.931 526.4C494.139 526.4 490.911 525.572 488.247 523.916C485.607 522.236 483.591 519.908 482.199 516.932C480.831 513.956 480.147 510.5 480.147 506.564C480.147 502.748 480.831 499.34 482.199 496.34C483.591 493.34 485.547 490.976 488.067 489.248C490.587 487.52 493.587 486.656 497.067 486.656C501.963 486.656 505.815 488.336 508.623 491.696C511.455 495.032 512.871 499.604 512.871 505.412C512.871 506.06 512.859 506.684 512.835 507.284C512.811 507.884 512.775 508.412 512.727 508.868H487.347ZM497.139 492.056C494.427 492.056 492.183 493.016 490.407 494.936C488.631 496.856 487.611 499.82 487.347 503.828H506.211C506.139 499.988 505.299 497.072 503.691 495.08C502.107 493.064 499.923 492.056 497.139 492.056ZM538.223 520.892C540.983 520.892 543.155 520.388 544.739 519.38C546.347 518.372 547.151 517.004 547.151 515.276C547.151 514.172 546.935 513.236 546.503 512.468C546.095 511.676 545.231 510.956 543.911 510.308C542.615 509.636 540.647 508.964 538.007 508.292C535.415 507.644 533.159 506.888 531.239 506.024C529.343 505.16 527.867 504.032 526.811 502.64C525.779 501.248 525.263 499.448 525.263 497.24C525.263 494.024 526.607 491.456 529.295 489.536C531.983 487.616 535.547 486.656 539.987 486.656C543.107 486.656 545.819 487.076 548.123 487.916C550.427 488.732 552.395 489.74 554.027 490.94L551.075 495.44C549.611 494.48 548.003 493.688 546.251 493.064C544.523 492.416 542.483 492.092 540.131 492.092C537.323 492.092 535.319 492.524 534.119 493.388C532.943 494.228 532.355 495.344 532.355 496.736C532.355 497.792 532.643 498.668 533.219 499.364C533.819 500.036 534.839 500.66 536.279 501.236C537.719 501.788 539.711 502.412 542.255 503.108C544.727 503.78 546.887 504.572 548.735 505.484C550.583 506.396 552.011 507.596 553.019 509.084C554.051 510.548 554.567 512.48 554.567 514.88C554.567 517.592 553.787 519.8 552.227 521.504C550.667 523.184 548.639 524.42 546.143 525.212C543.671 526.004 541.031 526.4 538.223 526.4C534.767 526.4 531.791 525.896 529.295 524.888C526.823 523.88 524.747 522.644 523.067 521.18L526.883 516.788C528.347 518.012 530.039 519.008 531.959 519.776C533.903 520.52 535.991 520.892 538.223 520.892Z" fill="white"/>
<path d="M411.75 191.25L156.25 191.25C136.092 191.25 119.75 209.382 119.75 231.75L119.75 373.5C119.75 395.868 136.092 414 156.25 414L411.75 414C431.908 414 448.25 395.868 448.25 373.5L448.25 231.75C448.25 209.382 431.908 191.25 411.75 191.25Z" stroke="white" stroke-width="14" stroke-linecap="round" stroke-linejoin="round"/>
<path d="M192.75 191.25L192.75 110.25C192.75 83.3969 202.364 57.6435 219.477 38.6554C236.589 19.6674 259.799 9 284 9C308.201 9 331.411 19.6674 348.524 38.6554C365.636 57.6435 375.25 83.3969 375.25 110.25L375.25 191.25" stroke="white" stroke-width="14" stroke-linecap="round" stroke-linejoin="round"/>
<defs>
<linearGradient id="paint0_linear" x1="288.951" y1="358.469" x2="288.951" y2="245" gradientUnits="userSpaceOnUse">
<stop stop-color="#9F00EA"/>
<stop offset="1" stop-color="#FA1DFF"/>
</linearGradient>
<linearGradient id="paint1_linear" x1="288.951" y1="358.469" x2="288.951" y2="245" gradientUnits="userSpaceOnUse">
<stop stop-color="#9F00EA"/>
<stop offset="1" stop-color="#FA1DFF"/>
</linearGradient>
</defs>
</svg>
