<svg width="57" height="54" viewBox="0 0 57 54" fill="none" xmlns="http://www.w3.org/2000/svg">
<path d="M40.1324 38.6773C40.1324 41.5119 37.8345 43.8098 35 43.8098C32.1654 43.8098 29.8676 41.5119 29.8676 38.6773C29.8676 35.8428 32.1654 33.5449 35 33.5449C37.8345 33.5449 40.1324 35.8428 40.1324 38.6773Z" fill="white" stroke="white" stroke-width="8"/>
<path d="M35.9546 45.5533L31.783 37.2633L34.9489 37.2633L34.1611 31.7367L38.3327 40.0267L35.1669 40.0267L35.9546 45.5533Z" fill="url(#paint0_linear)" stroke="url(#paint1_linear)" stroke-linecap="round" stroke-linejoin="round"/>
<path d="M50.5556 25.1918L19.4444 25.1918C16.9898 25.1918 15 27.3997 15 30.1233L15 47.3836C15 50.1072 16.9898 52.3151 19.4444 52.3151L50.5556 52.3151C53.0102 52.3151 55 50.1072 55 47.3836L55 30.1233C55 27.3997 53.0102 25.1918 50.5556 25.1918Z" stroke="white" stroke-width="3" stroke-linecap="round" stroke-linejoin="round"/>
<path d="M24 24L24 14.2222C24 10.9807 22.8411 7.87192 20.7782 5.57981C18.7153 3.28769 15.9174 2 13 2C10.0826 2 7.28473 3.28769 5.22182 5.57981C3.15892 7.87192 2 10.9807 2 14.2222L2 24" stroke="white" stroke-width="3" stroke-linecap="round" stroke-linejoin="round"/>
<defs>
<linearGradient id="paint0_linear" x1="35.6029" y1="45.5533" x2="35.6029" y2="31.7367" gradientUnits="userSpaceOnUse">
<stop stop-color="#9F00EA"/>
<stop offset="1" stop-color="#FA1DFF"/>
</linearGradient>
<linearGradient id="paint1_linear" x1="35.6029" y1="45.5533" x2="35.6029" y2="31.7367" gradientUnits="userSpaceOnUse">
<stop stop-color="#9F00EA"/>
<stop offset="1" stop-color="#FA1DFF"/>
</linearGradient>
</defs>
</svg>
